<?xml version="1.0" encoding="UTF-8"?>
<svg width="200px" height="150px" viewBox="0 0 200 150" version="1.1" xmlns="http://www.w3.org/2000/svg">
    <title>Unicorn 1</title>
    <defs>
        <linearGradient x1="0%" y1="0%" x2="100%" y2="100%" id="maneGradient">
            <stop stop-color="#FF9EFF" offset="0%"></stop>
            <stop stop-color="#FF7CFF" offset="100%"></stop>
        </linearGradient>
        <linearGradient x1="0%" y1="0%" x2="100%" y2="100%" id="bodyGradient">
            <stop stop-color="#FFFFFF" offset="0%"></stop>
            <stop stop-color="#F5F5FF" offset="100%"></stop>
        </linearGradient>
        <linearGradient x1="0%" y1="0%" x2="100%" y2="100%" id="hornGradient">
            <stop stop-color="#FFD700" offset="0%"></stop>
            <stop stop-color="#FFC0CB" offset="100%"></stop>
        </linearGradient>
    </defs>
    <g stroke="none" stroke-width="1" fill="none" fill-rule="evenodd">
        <!-- Body -->
        <path d="M40,80 C40,60 60,50 90,50 C120,50 150,70 160,90 C170,110 160,125 140,130 C120,135 100,130 80,120 C60,110 40,100 40,80 Z" 
              fill="url(#bodyGradient)" stroke="#D0D0FF" stroke-width="1.5"></path>
        
        <!-- Head -->
        <path d="M30,70 C30,60 40,50 55,45 C70,40 85,45 90,55 C95,65 90,75 80,80 C70,85 55,85 40,75 C35,70 30,75 30,70 Z" 
              fill="url(#bodyGradient)" stroke="#D0D0FF" stroke-width="1.5"></path>
        
        <!-- Legs -->
        <line x1="60" y1="120" x2="65" y2="140" stroke="#D0D0FF" stroke-width="3" stroke-linecap="round"></line>
        <line x1="80" y1="120" x2="85" y2="140" stroke="#D0D0FF" stroke-width="3" stroke-linecap="round"></line>
        <line x1="100" y1="120" x2="105" y2="140" stroke="#D0D0FF" stroke-width="3" stroke-linecap="round"></line>
        <line x1="120" y1="120" x2="125" y2="140" stroke="#D0D0FF" stroke-width="3" stroke-linecap="round"></line>
        
        <!-- Mane -->
        <path d="M55,45 C60,35 75,25 85,30 C95,35 95,45 90,55 C85,65 75,70 65,60 C60,55 50,55 55,45 Z" 
              fill="url(#maneGradient)" stroke="#FF9EFF" stroke-width="1"></path>
        
        <!-- Horn -->
        <path d="M55,45 C50,35 45,25 40,15 C35,5 50,10 55,25 C60,40 55,45 55,45 Z" 
              fill="url(#hornGradient)" stroke="#FFD700" stroke-width="1"></path>
        
        <!-- Eye -->
        <circle cx="50" cy="60" r="3" fill="#000000"></circle>
        
        <!-- Sparkles -->
        <circle cx="40" cy="15" r="2" fill="#FFFFFF"></circle>
        <circle cx="45" cy="10" r="1" fill="#FFFFFF"></circle>
        <circle cx="50" cy="20" r="1.5" fill="#FFFFFF"></circle>
        
        <!-- Tail -->
        <path d="M140,100 C160,90 180,100 180,120 C180,130 170,135 160,130 C150,125 140,115 140,100 Z" 
              fill="url(#maneGradient)" stroke="#FF9EFF" stroke-width="1"></path>
    </g>
</svg> 